<!DOCTYPE svg PUBLIC "-//W3C//DTD SVG 1.1//EN" "http://www.w3.org/Graphics/SVG/1.1/DTD/svg11.dtd">
<!-- Uploaded to: SVG Repo, www.svgrepo.com, Transformed by: SVG Repo Mixer Tools -->
<svg version="1.1" id="Layer_1" xmlns="http://www.w3.org/2000/svg" xmlns:xlink="http://www.w3.org/1999/xlink" viewBox="-51.2 -51.2 614.40 614.40" xml:space="preserve" width="800px" height="800px" fill="#ffffff">
<g id="SVGRepo_bgCarrier" stroke-width="0"/>
<g id="SVGRepo_tracerCarrier" stroke-linecap="round" stroke-linejoin="round"/>
<g id="SVGRepo_iconCarrier"> <rect x="187.43" y="315.712" style="fill:rgb(167,115,74);" width="138.242" height="52.838"/> <g> <path style="fill:#ffffff;" d="M325.662,301.568h-17.939v-87.274c0-7.812-6.333-14.147-14.147-14.147 c-7.813,0-14.147,6.335-14.147,14.147v87.272h-92.006c-7.813,0-14.147,6.335-14.147,14.147v52.842 c0,7.812,6.333,14.147,14.147,14.147h138.239c7.813,0,14.147-6.335,14.147-14.147v-52.842 C339.809,307.901,333.475,301.568,325.662,301.568z M311.515,354.409H201.57V329.86h109.945V354.409z"/> <path style="fill:#ffffff;" d="M218.696,276.62c-7.813,0-14.147-6.335-14.147-14.147V93.423h-31.407v24.097 c0,7.812-6.333,14.147-14.147,14.147h-64.59c-7.813,0-14.147-6.335-14.147-14.147V14.147C80.259,6.335,86.593,0,94.406,0h323.188 c7.813,0,14.147,6.335,14.147,14.147v103.374c0,7.812-6.333,14.147-14.147,14.147h-64.59c-7.813,0-14.147-6.335-14.147-14.147 V93.423h-31.137v58.028c0,7.812-6.333,14.147-14.147,14.147s-14.147-6.335-14.147-14.147V79.277 c0-7.812,6.333-14.147,14.147-14.147h59.43c7.813,0,14.147,6.335,14.147,14.147v24.097h36.296V28.293H108.553v75.081h36.296V79.277 c0-7.812,6.333-14.147,14.147-14.147h59.7c7.813,0,14.147,6.335,14.147,14.147v183.197 C232.843,270.287,226.509,276.62,218.696,276.62z"/> </g> <rect x="94.407" y="433.228" style="fill:rgb(167,115,74);" width="323.195" height="64.619"/> <path style="fill:#ffffff;" d="M417.594,512H94.406c-7.813,0-14.147-6.335-14.147-14.147v-64.619 c0-7.812,6.333-14.147,14.147-14.147h323.188c7.813,0,14.147,6.335,14.147,14.147v64.619C431.741,505.665,425.407,512,417.594,512z M108.553,483.707h294.895v-36.326H108.553V483.707z"/> </g>
</svg>